<?xml version="1.0" standalone="no"?><!DOCTYPE svg PUBLIC "-//W3C//DTD SVG 1.1//EN" "http://www.w3.org/Graphics/SVG/1.1/DTD/svg11.dtd"><svg t="1760800239470" class="icon" viewBox="0 0 1024 1024" version="1.1" xmlns="http://www.w3.org/2000/svg" p-id="4538" xmlns:xlink="http://www.w3.org/1999/xlink" width="200" height="200"><path d="M426.666667 170.666667 426.666667 341.333333 597.333333 341.333333 597.333333 170.666667 426.666667 170.666667M682.666667 170.666667 682.666667 341.333333 853.333333 341.333333 853.333333 170.666667 682.666667 170.666667M682.666667 426.666667 682.666667 597.333333 853.333333 597.333333 853.333333 426.666667 682.666667 426.666667M682.666667 682.666667 682.666667 853.333333 853.333333 853.333333 853.333333 682.666667 682.666667 682.666667M597.333333 853.333333 597.333333 682.666667 426.666667 682.666667 426.666667 853.333333 597.333333 853.333333M341.333333 853.333333 341.333333 682.666667 170.666667 682.666667 170.666667 853.333333 341.333333 853.333333M341.333333 597.333333 341.333333 426.666667 170.666667 426.666667 170.666667 597.333333 341.333333 597.333333M341.333333 341.333333 341.333333 170.666667 170.666667 170.666667 170.666667 341.333333 341.333333 341.333333M426.666667 597.333333 597.333333 597.333333 597.333333 426.666667 426.666667 426.666667 426.666667 597.333333M170.666667 85.333333 853.333333 85.333333C900.266667 85.333333 938.666667 123.733333 938.666667 170.666667L938.666667 853.333333C938.666667 900.266667 900.266667 938.666667 853.333333 938.666667L170.666667 938.666667C124.586667 938.666667 85.333333 900.266667 85.333333 853.333333L85.333333 170.666667C85.333333 123.733333 123.733333 85.333333 170.666667 85.333333Z" p-id="4539" fill="#764ba2"></path></svg>