<?xml version="1.0" standalone="no"?><!DOCTYPE svg PUBLIC "-//W3C//DTD SVG 1.1//EN" "http://www.w3.org/Graphics/SVG/1.1/DTD/svg11.dtd"><svg t="1760871310858" class="icon" viewBox="0 0 1280 1024" version="1.1" xmlns="http://www.w3.org/2000/svg" p-id="4577" xmlns:xlink="http://www.w3.org/1999/xlink" width="250" height="200"><path d="M128 320c0-141.4 114.6-256 256-256h512c141.4 0 256 114.6 256 256v67.2c-73 14.8-128 79.4-128 156.8v96H256v-96c0-77.4-55-142-128-156.8V320z m960 224c0-41.8 26.8-77.4 64-90.6 10-3.6 20.8-5.4 32-5.4 53 0 96 43 96 96v352c0 35.4-28.6 64-64 64h-64c-35.4 0-64-28.6-64-64H192c0 35.4-28.6 64-64 64H64c-35.4 0-64-28.6-64-64V544c0-53 43-96 96-96 11.2 0 22 2 32 5.4 37.2 13.2 64 48.8 64 90.6v160h896v-160z" p-id="4578" fill="#1296db"></path></svg>